<?xml version="1.0" encoding="UTF-8" standalone="no"?>
<!-- Created with Inkscape (http://www.inkscape.org/) -->

<svg
   version="1.1"
   id="svg2"
   width="529.1333"
   height="177.63733"
   viewBox="0 0 529.1333 177.63733"
   sodipodi:docname="Logo.UBAFilo_CMYK.ai"
   xmlns:inkscape="http://www.inkscape.org/namespaces/inkscape"
   xmlns:sodipodi="http://sodipodi.sourceforge.net/DTD/sodipodi-0.dtd"
   xmlns="http://www.w3.org/2000/svg"
   xmlns:svg="http://www.w3.org/2000/svg">
  <defs
     id="defs6">
    <clipPath
       clipPathUnits="userSpaceOnUse"
       id="clipPath182">
      <path
         d="M 0,133.228 H 396.85 V 0 H 0 Z"
         id="path180" />
    </clipPath>
  </defs>
  <sodipodi:namedview
     id="namedview4"
     pagecolor="#ffffff"
     bordercolor="#000000"
     borderopacity="0.25"
     inkscape:showpageshadow="2"
     inkscape:pageopacity="0.0"
     inkscape:pagecheckerboard="0"
     inkscape:deskcolor="#d1d1d1"
     showgrid="false" />
  <g
     id="g10"
     inkscape:groupmode="layer"
     inkscape:label="Page 1"
     transform="matrix(1.3333333,0,0,-1.3333333,0,177.63733)">
    <g
       id="g12"
       transform="matrix(2.132487,0,0,2.132487,165.59207,110.55391)">
      <path
         d="M 0,0 H 10.927 V -2.263 H 2.606 v -6.5 h 7.848 v -2.264 H 2.606 v -9.692 H 0 Z"
         style="fill:#49bfaa;fill-opacity:1;fill-rule:nonzero;stroke:none"
         id="path14" />
    </g>
    <path
       d="m 193.62979,110.55413 h 5.55726 V 66.371125 h -5.55726 z"
       style="fill:#49bfaa;fill-opacity:1;fill-rule:nonzero;stroke:none;stroke-width:2.13248"
       id="path16" />
    <g
       id="g18"
       transform="matrix(2.132487,0,0,2.132487,206.51171,110.55391)">
      <path
         d="m 0,0 h 2.606 v -18.455 h 8.588 v -2.264 H 0 Z"
         style="fill:#49bfaa;fill-opacity:1;fill-rule:nonzero;stroke:none"
         id="path20" />
    </g>
  </g>
  <g
     id="g162"
     inkscape:groupmode="layer"
     inkscape:label="Page 2"
     transform="matrix(1.3333333,0,0,-1.3333333,549.13333,177.63733)">
    <g
       id="g176"
       transform="matrix(2.132487,0,0,2.132487,-569.12527,-74.417799)">
      <g
         id="g178"
         clip-path="url(#clipPath182)">
        <g
           id="g184"
           transform="translate(184.98,76.3806)">
          <path
             d="M 0,0 C 0,-4.788 0.474,-8.676 4.087,-8.676 7.7,-8.676 8.173,-4.788 8.173,0 8.173,4.788 7.7,8.676 4.087,8.676 0.474,8.676 0,4.788 0,0 m 10.898,0 c 0,-5.223 -0.977,-10.766 -6.811,-10.766 -5.834,0 -6.811,5.543 -6.811,10.766 0,5.223 0.977,10.766 6.811,10.766 5.834,0 6.811,-5.543 6.811,-10.766"
             style="fill:#49bfaa;fill-opacity:1;fill-rule:nonzero;stroke:none"
             id="path186" />
        </g>
        <g
           id="g188"
           transform="translate(84.1836,68.5795)">
          <path
             d="m 0,0 c 0,-1.567 -1.268,-2.838 -2.837,-2.838 -1.571,0 -2.84,1.271 -2.84,2.838 0,1.568 1.269,2.84 2.84,2.84 C -1.268,2.84 0,1.568 0,0"
             style="fill:#ffffff;fill-opacity:1;fill-rule:nonzero;stroke:none"
             id="path190" />
        </g>
        <g
           id="g192"
           transform="translate(103.5497,73.8888)">
          <path
             d="m 0,0 c 0,-5.611 -3.383,-8.345 -9.05,-8.345 -5.697,0 -9.02,2.704 -9.02,8.345 v 12.909 h 4.659 V 0 c 0,-2.268 0.593,-4.507 4.361,-4.507 3.323,0 4.392,1.425 4.392,4.507 V 12.909 H 0 Z"
             style="fill:#ffffff;fill-opacity:1;fill-rule:nonzero;stroke:none"
             id="path194" />
        </g>
        <g
           id="g196"
           transform="translate(111.828,69.5857)">
          <path
             d="m 0,0 h 4.985 c 1.839,0 3.442,0.581 3.442,2.733 0,2.123 -1.365,2.966 -3.353,2.966 H 0 Z m 0,8.81 h 4.718 c 1.632,0 2.848,0.727 2.848,2.471 0,1.977 -1.543,2.384 -3.204,2.384 H 0 Z m -4.658,8.402 h 9.969 c 4.035,0 6.765,-1.279 6.765,-5.146 0,-2.035 -1.038,-3.46 -2.878,-4.332 2.581,-0.727 3.887,-2.675 3.887,-5.263 0,-4.216 -3.65,-6.018 -7.477,-6.018 H -4.658 Z"
             style="fill:#ffffff;fill-opacity:1;fill-rule:nonzero;stroke:none"
             id="path198" />
        </g>
        <g
           id="g200"
           transform="translate(133.0131,74.0632)">
          <path
             d="m 0,0 h 5.489 l -2.67,7.618 h -0.06 z m 0.445,12.735 h 4.777 l 7.922,-20.76 H 8.308 l -1.602,4.623 h -7.923 l -1.661,-4.623 h -4.718 z"
             style="fill:#ffffff;fill-opacity:1;fill-rule:nonzero;stroke:none"
             id="path202" />
        </g>
        <g
           id="g204"
           transform="translate(85.4985,57.5418)">
          <path
             d="M 0,0 H 5.816 V -1.229 H 1.388 V -4.76 H 5.564 V -5.99 H 1.388 v -5.264 H 0 Z"
             style="fill:#ffffff;fill-opacity:1;fill-rule:nonzero;stroke:none"
             id="path206" />
        </g>
        <g
           id="g208"
           transform="translate(96.1196,50.89)">
          <path
             d="M 0,0 C -0.488,-0.52 -1.654,-0.63 -2.254,-0.993 -2.68,-1.261 -2.9,-1.592 -2.9,-2.333 c 0,-0.851 0.299,-1.45 1.198,-1.45 0.867,0 1.702,0.741 1.702,1.608 z m -4.082,1.292 c 0,1.924 0.819,2.775 2.837,2.775 2.569,0 2.569,-1.545 2.569,-2.428 v -4.713 c 0,-0.346 0,-0.677 0.41,-0.677 0.173,0 0.252,0.031 0.316,0.079 V -4.618 C 1.955,-4.634 1.608,-4.697 1.277,-4.697 c -0.505,0 -1.134,0 -1.198,1.088 H 0.048 c -0.426,-0.757 -1.245,-1.214 -2.033,-1.214 -1.577,0 -2.302,0.946 -2.302,2.459 0,1.182 0.505,2.002 1.592,2.333 l 1.781,0.535 c 0.962,0.3 0.962,0.568 0.962,1.277 0,0.788 -0.473,1.245 -1.356,1.245 -1.45,0 -1.45,-1.355 -1.45,-1.654 v -0.08 z"
             style="fill:#ffffff;fill-opacity:1;fill-rule:nonzero;stroke:none"
             id="path210" />
        </g>
        <g
           id="g212"
           transform="translate(103.3687,52.1668)">
          <path
             d="m 0,0 c 0,0.82 -0.331,1.75 -1.34,1.75 -0.82,0 -1.655,-0.41 -1.655,-3.5 0,-1.103 0.016,-3.31 1.607,-3.31 1.135,0 1.388,1.198 1.388,2.112 h 1.323 c 0,-1.34 -0.662,-3.152 -2.773,-3.152 -2.066,0 -2.932,1.434 -2.932,4.334 0,2.113 0.409,4.556 3.01,4.556 C 0.93,2.79 1.323,0.977 1.323,0 Z"
             style="fill:#ffffff;fill-opacity:1;fill-rule:nonzero;stroke:none"
             id="path214" />
        </g>
        <g
           id="g216"
           transform="translate(111.7358,46.2874)">
          <path
             d="m 0,0 h -1.261 v 0.993 h -0.031 c -0.347,-0.772 -1.229,-1.214 -2.049,-1.214 -2.222,0 -2.222,1.687 -2.222,2.68 v 5.99 h 1.324 V 2.617 c 0,-0.647 0.047,-1.703 1.245,-1.703 0.709,0 1.671,0.473 1.671,1.703 V 8.449 H 0 Z"
             style="fill:#ffffff;fill-opacity:1;fill-rule:nonzero;stroke:none"
             id="path218" />
        </g>
        <path
           d="m 113.657,57.542 h 1.324 V 46.288 h -1.324 z"
           style="fill:#ffffff;fill-opacity:1;fill-rule:nonzero;stroke:none"
           id="path220" />
        <g
           id="g222"
           transform="translate(117.2974,57.1951)">
          <path
             d="M 0,0 H 1.324 V -2.459 H 2.79 V -3.5 H 1.324 v -5.422 c 0,-0.678 0.174,-0.945 0.867,-0.945 0.284,0 0.442,0.031 0.583,0.047 v -1.088 C 2.601,-10.939 2.254,-11.002 1.702,-11.002 0.331,-11.002 0,-10.435 0,-9.332 V -3.5 h -1.229 v 1.041 H 0 Z"
             style="fill:#ffffff;fill-opacity:1;fill-rule:nonzero;stroke:none"
             id="path224" />
        </g>
        <g
           id="g226"
           transform="translate(124.9722,50.89)">
          <path
             d="M 0,0 C -0.488,-0.52 -1.654,-0.63 -2.254,-0.993 -2.68,-1.261 -2.9,-1.592 -2.9,-2.333 c 0,-0.851 0.299,-1.45 1.198,-1.45 0.867,0 1.702,0.741 1.702,1.608 z m -4.082,1.292 c 0,1.924 0.819,2.775 2.837,2.775 2.569,0 2.569,-1.545 2.569,-2.428 v -4.713 c 0,-0.346 0,-0.677 0.41,-0.677 0.173,0 0.252,0.031 0.316,0.079 V -4.618 C 1.955,-4.634 1.608,-4.697 1.277,-4.697 c -0.505,0 -1.134,0 -1.198,1.088 H 0.048 c -0.426,-0.757 -1.245,-1.214 -2.033,-1.214 -1.577,0 -2.302,0.946 -2.302,2.459 0,1.182 0.505,2.002 1.592,2.333 l 1.781,0.535 c 0.962,0.3 0.962,0.568 0.962,1.277 0,0.788 -0.473,1.245 -1.356,1.245 -1.45,0 -1.45,-1.355 -1.45,-1.654 v -0.08 z"
             style="fill:#ffffff;fill-opacity:1;fill-rule:nonzero;stroke:none"
             id="path228" />
        </g>
        <g
           id="g230"
           transform="translate(130.8179,47.2015)">
          <path
             d="M 0,0 C 1.466,0 1.702,1.387 1.702,3.31 1.702,4.95 1.419,6.62 0,6.62 -1.229,6.62 -1.545,5.328 -1.545,3.31 -1.545,1.292 -1.229,0 0,0 m 2.947,-0.914 h -1.26 v 1.04 H 1.655 c -0.174,-0.63 -0.914,-1.261 -1.828,-1.261 -2.002,0 -2.759,1.781 -2.759,4.445 0,1.766 0.284,4.445 2.664,4.445 0.756,0 1.561,-0.457 1.86,-1.182 h 0.032 v 3.767 h 1.323 z"
             style="fill:#ffffff;fill-opacity:1;fill-rule:nonzero;stroke:none"
             id="path232" />
        </g>
        <g
           id="g234"
           transform="translate(142.1157,47.2015)">
          <path
             d="M 0,0 C 1.466,0 1.702,1.387 1.702,3.31 1.702,4.95 1.419,6.62 0,6.62 -1.229,6.62 -1.545,5.328 -1.545,3.31 -1.545,1.292 -1.229,0 0,0 m 2.947,-0.914 h -1.26 v 1.04 H 1.655 c -0.174,-0.63 -0.914,-1.261 -1.828,-1.261 -2.002,0 -2.759,1.781 -2.759,4.445 0,1.766 0.284,4.445 2.664,4.445 0.756,0 1.561,-0.457 1.86,-1.182 h 0.032 v 3.767 h 1.323 z"
             style="fill:#ffffff;fill-opacity:1;fill-rule:nonzero;stroke:none"
             id="path236" />
        </g>
        <g
           id="g238"
           transform="translate(151.0659,51.3944)">
          <path
             d="m 0,0 v 0.457 c 0,0.946 -0.3,2.065 -1.466,2.065 -1.388,0 -1.545,-1.702 -1.545,-2.207 V 0 Z m -3.058,-1.04 c 0,-1.293 0,-3.247 1.623,-3.247 1.261,0 1.435,1.324 1.435,1.954 h 1.324 c 0,-0.898 -0.536,-2.995 -2.838,-2.995 -2.064,0 -2.931,1.435 -2.931,4.335 0,2.112 0.41,4.556 3.01,4.556 2.585,0 2.822,-2.255 2.822,-4.067 V -1.04 Z"
             style="fill:#ffffff;fill-opacity:1;fill-rule:nonzero;stroke:none"
             id="path240" />
        </g>
        <g
           id="g242"
           transform="translate(157.9497,57.5418)">
          <path
             d="M 0,0 H 5.816 V -1.229 H 1.388 V -4.76 H 5.564 V -5.99 H 1.388 v -5.264 H 0 Z"
             style="fill:#ffffff;fill-opacity:1;fill-rule:nonzero;stroke:none"
             id="path244" />
        </g>
        <path
           d="m 164.804,54.736 h 1.324 v -8.449 h -1.324 z m 0,2.806 h 1.324 v -1.513 h -1.324 z"
           style="fill:#ffffff;fill-opacity:1;fill-rule:nonzero;stroke:none"
           id="path246" />
        <path
           d="m 168.129,57.542 h 1.324 V 46.288 h -1.324 z"
           style="fill:#ffffff;fill-opacity:1;fill-rule:nonzero;stroke:none"
           id="path248" />
        <g
           id="g250"
           transform="translate(175.6636,50.5116)">
          <path
             d="m 0,0 c 0,1.829 -0.268,3.405 -1.687,3.405 -1.339,0 -1.624,-1.576 -1.624,-3.405 0,-1.828 0.269,-3.404 1.624,-3.404 C -0.284,-3.404 0,-1.828 0,0 M -1.655,4.445 C 0.788,4.445 1.387,2.38 1.387,0 c 0,-2.38 -0.615,-4.445 -3.042,-4.445 -2.444,0 -3.042,2.065 -3.042,4.445 0,2.38 0.615,4.445 3.042,4.445"
             style="fill:#ffffff;fill-opacity:1;fill-rule:nonzero;stroke:none"
             id="path252" />
        </g>
        <g
           id="g254"
           transform="translate(182.1079,52.2616)">
          <path
             d="m 0,0 c 0,1.072 -0.283,1.655 -1.245,1.655 -0.426,0 -1.371,-0.111 -1.371,-1.293 0,-0.993 1.04,-1.182 2.08,-1.529 1.024,-0.346 2.065,-0.709 2.065,-2.38 0,-1.781 -1.151,-2.648 -2.727,-2.648 -2.868,0 -2.9,2.128 -2.9,2.995 h 1.324 c 0,-1.025 0.284,-1.954 1.576,-1.954 0.426,0 1.403,0.204 1.403,1.403 0,1.134 -1.04,1.371 -2.065,1.717 -1.025,0.347 -2.08,0.647 -2.08,2.396 0,1.576 1.229,2.333 2.695,2.333 2.459,0 2.554,-1.702 2.569,-2.695 z"
             style="fill:#ffffff;fill-opacity:1;fill-rule:nonzero;stroke:none"
             id="path256" />
        </g>
        <g
           id="g258"
           transform="translate(189.2935,50.5116)">
          <path
             d="m 0,0 c 0,1.829 -0.268,3.405 -1.687,3.405 -1.339,0 -1.624,-1.576 -1.624,-3.405 0,-1.828 0.269,-3.404 1.624,-3.404 C -0.284,-3.404 0,-1.828 0,0 M -1.655,4.445 C 0.788,4.445 1.387,2.38 1.387,0 c 0,-2.38 -0.615,-4.445 -3.042,-4.445 -2.444,0 -3.042,2.065 -3.042,4.445 0,2.38 0.615,4.445 3.042,4.445"
             style="fill:#ffffff;fill-opacity:1;fill-rule:nonzero;stroke:none"
             id="path260" />
        </g>
        <g
           id="g262"
           transform="translate(192.5063,53.6956)">
          <path
             d="M 0,0 H -1.229 V 1.041 H 0 V 2.033 C 0,3.31 0.552,3.972 1.829,3.972 H 2.79 V 2.837 H 2.176 C 1.608,2.837 1.324,2.617 1.324,2.033 V 1.041 h 1.45 V 0 H 1.324 V -7.408 H 0 Z"
             style="fill:#ffffff;fill-opacity:1;fill-rule:nonzero;stroke:none"
             id="path264" />
        </g>
        <path
           d="m 196.382,54.736 h 1.324 v -8.449 h -1.324 z m 0.978,3.405 h 1.545 l -1.702,-2.238 h -0.947 z"
           style="fill:#ffffff;fill-opacity:1;fill-rule:nonzero;stroke:none"
           id="path266" />
        <g
           id="g268"
           transform="translate(203.5063,50.89)">
          <path
             d="M 0,0 C -0.488,-0.52 -1.654,-0.63 -2.254,-0.993 -2.68,-1.261 -2.9,-1.592 -2.9,-2.333 c 0,-0.851 0.299,-1.45 1.198,-1.45 0.867,0 1.702,0.741 1.702,1.608 z m -4.082,1.292 c 0,1.924 0.819,2.775 2.837,2.775 2.569,0 2.569,-1.545 2.569,-2.428 v -4.713 c 0,-0.346 0,-0.677 0.41,-0.677 0.173,0 0.252,0.031 0.316,0.079 V -4.618 C 1.955,-4.634 1.608,-4.697 1.277,-4.697 c -0.505,0 -1.134,0 -1.198,1.088 H 0.048 c -0.426,-0.757 -1.245,-1.214 -2.033,-1.214 -1.577,0 -2.302,0.946 -2.302,2.459 0,1.182 0.505,2.002 1.592,2.333 l 1.781,0.535 c 0.962,0.3 0.962,0.568 0.962,1.277 0,0.788 -0.473,1.245 -1.356,1.245 -1.45,0 -1.45,-1.355 -1.45,-1.654 v -0.08 z"
             style="fill:#ffffff;fill-opacity:1;fill-rule:nonzero;stroke:none"
             id="path270" />
        </g>
        <g
           id="g272"
           transform="translate(209.9175,54.7362)">
          <path
             d="M 0,0 H 1.45 L 3.121,-6.778 H 3.153 L 4.635,0 h 1.45 L 3.642,-9.016 c -0.316,-1.167 -0.663,-2.207 -2.254,-2.207 -0.521,0 -0.742,0.032 -0.962,0.047 v 1.041 c 0.189,-0.032 0.441,-0.048 0.772,-0.048 0.615,0 0.883,0.363 1.04,0.82 l 0.253,0.741 z"
             style="fill:#ffffff;fill-opacity:1;fill-rule:nonzero;stroke:none"
             id="path274" />
        </g>
        <g
           id="g276"
           transform="translate(221.0737,57.5418)">
          <path
             d="m 0,0 h 1.388 v -10.025 h 4.57 v -1.229 H 0 Z"
             style="fill:#ffffff;fill-opacity:1;fill-rule:nonzero;stroke:none"
             id="path278" />
        </g>
        <g
           id="g280"
           transform="translate(232.2944,51.3944)">
          <path
             d="m 0,0 v 0.457 c 0,0.946 -0.3,2.065 -1.466,2.065 -1.388,0 -1.545,-1.702 -1.545,-2.207 V 0 Z m -3.058,-1.04 c 0,-1.293 0,-3.247 1.623,-3.247 1.261,0 1.435,1.324 1.435,1.954 h 1.324 c 0,-0.898 -0.536,-2.995 -2.838,-2.995 -2.064,0 -2.931,1.435 -2.931,4.335 0,2.112 0.41,4.556 3.01,4.556 2.585,0 2.822,-2.255 2.822,-4.067 V -1.04 Z"
             style="fill:#ffffff;fill-opacity:1;fill-rule:nonzero;stroke:none"
             id="path282" />
        </g>
        <g
           id="g284"
           transform="translate(235.6333,57.1951)">
          <path
             d="M 0,0 H 1.324 V -2.459 H 2.79 V -3.5 H 1.324 v -5.422 c 0,-0.678 0.174,-0.945 0.867,-0.945 0.284,0 0.442,0.031 0.583,0.047 v -1.088 C 2.601,-10.939 2.254,-11.002 1.702,-11.002 0.331,-11.002 0,-10.435 0,-9.332 V -3.5 h -1.229 v 1.041 H 0 Z"
             style="fill:#ffffff;fill-opacity:1;fill-rule:nonzero;stroke:none"
             id="path286" />
        </g>
        <g
           id="g288"
           transform="translate(239.4312,54.7362)">
          <path
             d="m 0,0 h 1.324 v -1.261 h 0.031 c 0.378,0.804 0.883,1.482 1.829,1.482 0.268,0 0.457,-0.032 0.583,-0.095 v -1.293 c -0.126,0.016 -0.284,0.063 -0.709,0.063 -0.662,0 -1.734,-0.599 -1.734,-2.001 V -8.449 H 0 Z"
             style="fill:#ffffff;fill-opacity:1;fill-rule:nonzero;stroke:none"
             id="path290" />
        </g>
        <g
           id="g292"
           transform="translate(248.0825,50.89)">
          <path
             d="M 0,0 C -0.488,-0.52 -1.654,-0.63 -2.254,-0.993 -2.68,-1.261 -2.9,-1.592 -2.9,-2.333 c 0,-0.851 0.299,-1.45 1.198,-1.45 0.867,0 1.702,0.741 1.702,1.608 z m -4.082,1.292 c 0,1.924 0.819,2.775 2.837,2.775 2.569,0 2.569,-1.545 2.569,-2.428 v -4.713 c 0,-0.346 0,-0.677 0.41,-0.677 0.173,0 0.252,0.031 0.316,0.079 V -4.618 C 1.955,-4.634 1.608,-4.697 1.277,-4.697 c -0.505,0 -1.134,0 -1.198,1.088 H 0.048 c -0.426,-0.757 -1.245,-1.214 -2.033,-1.214 -1.577,0 -2.302,0.946 -2.302,2.459 0,1.182 0.505,2.002 1.592,2.333 l 1.781,0.535 c 0.962,0.3 0.962,0.568 0.962,1.277 0,0.788 -0.473,1.245 -1.356,1.245 -1.45,0 -1.45,-1.355 -1.45,-1.654 v -0.08 z"
             style="fill:#ffffff;fill-opacity:1;fill-rule:nonzero;stroke:none"
             id="path294" />
        </g>
        <g
           id="g296"
           transform="translate(254.936,52.2616)">
          <path
             d="m 0,0 c 0,1.072 -0.283,1.655 -1.245,1.655 -0.426,0 -1.371,-0.111 -1.371,-1.293 0,-0.993 1.04,-1.182 2.08,-1.529 1.024,-0.346 2.065,-0.709 2.065,-2.38 0,-1.781 -1.151,-2.648 -2.727,-2.648 -2.868,0 -2.9,2.128 -2.9,2.995 h 1.324 c 0,-1.025 0.284,-1.954 1.576,-1.954 0.426,0 1.403,0.204 1.403,1.403 0,1.134 -1.04,1.371 -2.065,1.717 -1.025,0.347 -2.08,0.647 -2.08,2.396 0,1.576 1.229,2.333 2.695,2.333 2.459,0 2.554,-1.702 2.569,-2.695 z"
             style="fill:#ffffff;fill-opacity:1;fill-rule:nonzero;stroke:none"
             id="path298" />
        </g>
      </g>
    </g>
  </g>
</svg>
